<svg xmlns="http://www.w3.org/2000/svg" viewBox="0 0 1022.8 1080"><path fill="#f26e22" d="M917.6 499.1c35.5-29.7 85-90.6 85-215.4C1002.5 95.1 873.3 0 681.8 0H0v1080h709.8c182.5 0 313-129.2 313-359.5 0-101-49.4-184.2-105.2-221.3Z"/><g fill="#404040"><path d="M592.3 725.8 560 1031.7l64.3-32.1 122.2-61c8.2-33.6 17.5-66.3 26.6-97.9 44-154.4 82.1-287.7-30.2-441.5a316.3 316.3 0 0 0-184.8-123.5l-5.3.8.4-6.3 2.6-35.8 2.5-34.4-78.4-149.5L401.6 200l3 43.9 2 30.7-4 1a316.8 316.8 0 0 0-185.8 123.8C105.3 552 145.7 694.7 188.3 845.7l25.1 93 186.4 93-16-151.6-16.3-154.3-106-59.2-8.8-4.9-.3-2.6-7-66.7-1.7-17.7 8.5 5L432 684.5l2.7 1.6-12.2 143.6 57.4 72.5 57.3-72.5L525 686.1l2.8-1.6 179.8-104.8 8.5-5-1.6 16-7.1 68.4-.3 2.6-8.8 5-106 59zm19.2 12.7-27.3 258.2 31.5-15.7 113.2-56.4c7.7-30.8 16.2-60.6 24.5-89.5C774.9 760 795 689 796 619.5c1-75.5-21.1-141.7-69.7-208.3a296.4 296.4 0 0 0-170.2-115l-25-5.8 1.6-21.7 2.6-35.6v-.2l2-28.6L480 94.5l-57.6 109.8L425 242l3.4 48.4-21 5a296.7 296.7 0 0 0-174 116 355.2 355.2 0 0 0-54.5 106.4A329.4 329.4 0 0 0 165 621.5c1.3 70.8 21.6 142.6 43.1 218.7l23 84.4 144.5 72.1-12-114.6-.2-1.6-15-142-96.7-54-18.2-10.1-1.4-13.2-7.1-69-5.7-55.3 43.2 25.2 180 104.8 13.8 8.1-12.5 148.4 36.2 45.8 36.3-45.8L503.5 675l14-8.1L697.3 562l43.3-25.3-5.6 54.4-7.3 70-1.3 13.2-18.6 10.4-96.3 53.7z"/><path d="M751 393.3a326.3 326.3 0 0 0-187.5-126.6l2.3-31.6 2.6-35.8v-1.4l-.6-1.3-83.5-159.1L480 29l-4.4 8.5-83.5 159-.6 1.3v1.4l3.2 45.3 1.5 22.2a326.7 326.7 0 0 0-187.3 126.7 385.1 385.1 0 0 0-59.1 115.5c-11 36-16 73-15.2 113.2 1.3 74.7 22.2 148.4 44.2 226.4l25.5 94.8.6 2.3 2 1 196.7 98 8.2 4.2-1-9.1-17-160.6-16.5-157-.3-2.5-2.3-1.3L266.4 658l-4.3-2.4-6.5-62.2 168.7 98.3-12 141.3 67.6 85.4 67.6-85.4-12-141.3L704 593.3l-6.4 62.2-4.3 2.4L585 718.3l-2.2 1.3-.3 2.6-33.6 317.5-1 9 8.2-4 72.5-36.1 124.3-62 2-1 .6-2.3a2548 2548 0 0 1 27-99.8c22-77.2 43-150.1 44-223.6 1-82.5-23-154.5-75.6-226.6zM615.7 981l-31.5 15.7 27.3-258.2 96.3-53.7 18.5-10.4 1.4-13.1 7.3-70.1 5.6-54.4-43.3 25.3-179.9 104.8-13.9 8 12.7 148.5-36.3 45.8-36.2-45.8L456.2 675l-13.9-8.1L262.4 562l-43.3-25.2 5.8 55.4 7.1 69 1.4 13.2 18.1 10.1 96.7 54 15 142 .2 1.6 12 114.6L231 924.6c-7.2-28.8-15.2-57-23-84.4-21.4-76-41.7-148-43-218.7a329 329 0 0 1 13.9-103.7c11.2-36.7 29-71.5 54.5-106.5a296.7 296.7 0 0 1 173.9-116l21-4.9L425 242l-2.6-37.7L480 94.5l57.5 109.8-2 28.6v.2l-2.6 35.6-1.5 21.7 24.9 5.8a296.4 296.4 0 0 1 170.2 115C775 477.8 797 544 796 619.5c-1 69.4-21.3 140.4-42.8 215.6L729 924.6 615.7 981z"/></g></svg>