<svg xmlns="http://www.w3.org/2000/svg" xml:space="preserve" baseProfile="tiny" overflow="visible" version="1.2" viewBox="0 0 1920 510.2"><g fill="#F26E22"><path d="M1436.4 510.1 1552 380.3l222.1-.5c25.7 0 41.3-14 41.3-39.3s-15.6-41.3-41.3-41.3h-193.7c-44.5 0-80.5-15-105.4-41.2-24.9-26-38.6-63.2-38.6-107.4 0-86.1 51.4-150.6 145.2-150.6H1920l-115.6 129h-222.8c-17.9 0-30.4 11.8-30.4 36.4s12.5 36.4 30.4 36.4h192.5c95 0 145.9 47 145.9 150.7 0 89.6-47.8 156.9-145.9 156.9l-337.7.7z"/><path d="m807.6 510 186.9-129.5h356.7c25.7 0 41.2-14 41.2-39.3S1377 300 1351.2 300h-193.7c-89 0-144-60.3-144-148.6S1064.7.7 1158.6.7l423-.7-106.8 129.6h-316.2c-18 0-30.5 12-30.5 36.5s12.5 36.4 30.5 36.4h192.5c95 0 145.9 47 145.9 150.7 0 89.6-47.9 157-146 157l-543.5-.2h.1zM0 510.1V.7h321.6C412 .7 473 45.5 473 134.5c0 58.9-23.3 87.6-40 101.6 26.2 17.6 49.5 56.8 49.5 104.4 0 108.6-61.5 169.6-147.6 169.6H0zm163.2-210.2v-97.4h161.4c24.5 0 35.9-14.7 35.9-36.5s-11.4-37-35.9-37H110v251.5h222.4c24.5 0 36.5-16.2 36.5-40.7s-12-40-36.5-40H163.2v.1z"/><path d="M802.4.7H693c-126.2 0-218.8 99.5-218.8 249.4s92.6 260 218.8 260h109.4c127.3 0 219.4-112.1 219.4-260S932 .7 802.4.7zm60 421.3L779 463.4 793.3 329l48.6-27.1 3.3-31.6-76.2 44.4 5.2 60.2-26.5 33.4-26.4-33.4 5.1-60.2-76.1-44.4 3.3 31.6 48.5 27 14.2 134.5-83.2-41.6c-19.7-81.4-55.8-152.2 1.6-231a136.3 136.3 0 0 1 79.8-53.1l-2-30.4L747.7 40l35.4 67.3-2.2 30.4a135.8 135.8 0 0 1 79.8 53.1c58.3 79.9 21.9 147.5 1.7 231v.2z"/></g></svg>