<svg xmlns="http://www.w3.org/2000/svg" xml:space="preserve" viewBox="0 0 1920 659.8"><path d="M76.6 590.9c0 8.2-1.7 15.5-5.2 21.8-3.4 6.3-8.4 11.2-14.8 14.7s-13.8 5.2-22.2 5.2H0v-81.3h33.7c28.6-.1 42.9 13.2 42.9 39.6zm-26 .2c0-4-.8-7.5-2.4-10.7a17.6 17.6 0 0 0-6.9-7.4 21 21 0 0 0-10.5-2.6h-6.3v43h6.9c5.9 0 10.5-2 14-6 3.5-4.1 5.2-9.5 5.2-16.3zm59 19.3c.4 2.5 1.8 4.5 4.3 5.9s5.7 2.1 9.8 2.1c5.6 0 11-1.1 16-3.2v15.3c-5.9 2.3-13 3.5-21.3 3.5-10.1 0-18-2.6-23.6-7.8s-8.4-12.3-8.4-21.4c0-6.2 1.2-11.7 3.7-16.5s6.1-8.5 11-11.2 10.2-4 16.1-4 11.1 1.2 15.4 3.5c4.3 2.3 7.5 5.6 9.7 9.9s3.3 9.2 3.3 14.8v9.1h-36zm14.5-12.7c0-6.7-2.4-10-7.2-10-2 0-3.7.9-5 2.8s-2.2 4.3-2.4 7.3l14.6-.1zm98.1 4a42 42 0 0 1-3.2 16.8 25.2 25.2 0 0 1-9.1 11.3 23 23 0 0 1-13.3 4c-6.8 0-12-2.5-15.5-7.4h-.2v32.7h-24.1v-84.7h24.1v7.9h.2c1.9-2.9 4.4-5.2 7.5-6.8s6.5-2.5 10.4-2.5c7.5 0 13.2 2.5 17.2 7.5s6 12.1 6 21.2zm-24.5.8c0-3.7-.7-6.5-2.1-8.6s-3.6-3.1-6.6-3.1a7.3 7.3 0 0 0-6.2 3.3 15 15 0 0 0-2.4 9v1.1c0 3.7.7 6.6 2 8.8s3.4 3.3 6.1 3.3c2.9 0 5.2-1.2 6.8-3.6 1.6-2.5 2.4-5.8 2.4-10.2zm57.2 7.9c.4 2.5 1.9 4.5 4.3 5.9s5.7 2.1 9.8 2.1c5.6 0 11-1.1 16-3.2v15.3c-5.9 2.3-13 3.5-21.3 3.5-10.1 0-18-2.6-23.6-7.8s-8.4-12.3-8.4-21.4c0-6.2 1.2-11.7 3.7-16.5s6.1-8.5 11-11.2 10.2-4 16.1-4 11.1 1.2 15.4 3.5c4.3 2.3 7.5 5.6 9.7 9.9s3.3 9.2 3.3 14.8v9.1h-36zm14.6-12.7c0-6.7-2.4-10-7.2-10-2 0-3.7.9-5 2.8a14 14 0 0 0-2.4 7.3h14.6v-.1zm70.2 34.8v-31.7c0-3.6-.5-6.2-1.6-7.7s-2.8-2.3-5.2-2.3c-2.1 0-3.7.8-4.9 2.4a10.1 10.1 0 0 0-1.8 6.2v33.1h-24.1v-58h24.1v9.1h.2a21.5 21.5 0 0 1 18.4-10.5c12.7 0 19 8 19 24v35.4h-24.1zm76.7 0v-6.7h-.2a20.4 20.4 0 0 1-7.5 6 23.1 23.1 0 0 1-22.3-1.5c-3.8-2.4-6.6-5.8-8.5-10.2s-2.8-9.6-2.8-15.5 1.1-11.6 3.3-16.4 5.4-8.5 9.4-11.1a24.6 24.6 0 0 1 20.2-3c2 .7 3.8 1.6 5.3 2.8s2.5 2.3 2.9 3.4h.2v-33.7h24.1v85.9h-24.1zm.5-30.8c0-3.5-.8-6.2-2.3-8.1s-3.6-2.9-6.2-2.9-4.7 1.2-6.4 3.6a17 17 0 0 0-2.5 9.6c0 8.2 2.8 12.3 8.5 12.3 2.7 0 4.8-1.1 6.4-3.3 1.6-2.2 2.4-5.4 2.4-9.7l.1-1.5zm59 8.7c.4 2.5 1.9 4.5 4.3 5.9s5.7 2.1 9.8 2.1c5.6 0 11-1.1 16-3.2v15.3c-5.9 2.3-13 3.5-21.3 3.5-10.1 0-18-2.6-23.6-7.8a27.8 27.8 0 0 1-8.5-21.4c0-6.2 1.2-11.7 3.7-16.5s6.1-8.5 11-11.2 10.2-4 16.1-4 11.1 1.2 15.4 3.5c4.3 2.3 7.5 5.6 9.7 9.9s3.3 9.2 3.3 14.8v9.1h-35.9zm14.5-12.7c0-6.7-2.4-10-7.2-10-2 0-3.7.9-5 2.8a14 14 0 0 0-2.4 7.3h14.6v-.1zm70.2 34.8v-31.7c0-3.6-.5-6.2-1.6-7.7s-2.8-2.3-5.2-2.3c-2.1 0-3.7.8-4.9 2.4s-1.8 3.7-1.8 6.2v33.1H523v-58h24.2v9.1h.2a21.5 21.5 0 0 1 18.4-10.5c12.7 0 19 8 19 24v35.4h-24.2zm85.8-1.6c-1.5.9-4 1.6-7.3 2.2-3.3.6-7.2.8-11.5.8-6.1 0-11.6-1.2-16.4-3.7s-8.5-5.9-11.2-10.4-4-9.5-4-15a33 33 0 0 1 4.2-17.1c2.8-4.7 6.8-8.4 12-10.9a41.5 41.5 0 0 1 18.1-3.8c3.8 0 7.2.2 10.2.7s4.9 1.1 5.8 1.7v18.8a22 22 0 0 0-11.5-3.6c-4.7 0-8.3 1.1-10.7 3.4s-3.7 5.4-3.7 9.5 1.2 7.1 3.6 9.3c2.4 2.2 5.7 3.3 9.9 3.3 4.5 0 8.6-1.1 12.4-3.2l.1 18zm23.8 28.9a47.8 47.8 0 0 1-14.3-2.3v-18.2c.9.7 2.3 1.4 4.2 2s3.6.9 5.3.9c4.5 0 7.5-1.8 9-5.3l1.9-4.5-24.3-57.9h26.7l7 28c1.4 5.2 2.1 8.7 2.2 10.5h.2l.5-2.8 8.8-35.8H721l-21.4 59.7c-3.2 9.1-7.2 15.7-11.9 19.7s-10.6 6-17.5 6zm170.1-27.3V588c0-4.2.1-8.8.4-13.8l.2-3.7h-.7c-1.2 6.4-2.1 10.8-2.8 13.3l-12 48.9h-23l-12.5-48.3-2.7-13.8h-.7c.5 12.7.8 20.6.8 23.8v38.3h-21.5v-81.3h36.7l11.2 44.2a99.2 99.2 0 0 1 1.8 11.9h.3c.4-3.4 1.1-7.5 2-12.2l10.4-43.9h36.1v81.3l-24-.2zm73 0v-8.8h-.2a19.1 19.1 0 0 1-17.7 10.3c-5.5 0-9.8-1.6-12.9-4.9s-4.7-7.6-4.7-13c0-11.4 7-18 21-19.8l14.4-1.9c0-1.9-.8-3.4-2.5-4.7s-4-1.8-6.9-1.8c-6.5 0-13.4 1.8-20.6 5.5v-15.7c3.1-1.4 7.1-2.5 11.8-3.3 4.7-.9 8.8-1.3 12.1-1.3 9.9 0 17 2.1 21.5 6.3s6.7 11.2 6.7 21.1v32h-22zM899 612.8c0 1.6.5 2.9 1.5 3.9s2.4 1.5 4.3 1.5c2.5 0 4.6-.9 6.2-2.8s2.3-4.3 2.3-7.3v-2.2l-8.2 1.1c-4 .7-6.1 2.7-6.1 5.8zm87.8 19.7v-31.7c0-3.6-.5-6.2-1.6-7.7s-2.8-2.3-5.2-2.3c-2.1 0-3.7.8-4.9 2.4a10.1 10.1 0 0 0-1.8 6.2v33.1h-24.2v-58h24.2v9.1h.2a21.5 21.5 0 0 1 18.4-10.5c12.7 0 19 8 19 24v35.4h-24.1zm70.1 0v-8.8h-.2A19.1 19.1 0 0 1 1039 634c-5.5 0-9.8-1.6-12.9-4.9s-4.7-7.6-4.7-13c0-11.4 7-18 21-19.8l14.4-1.9c0-1.9-.8-3.4-2.6-4.7-1.7-1.2-4-1.8-6.9-1.8-6.5 0-13.4 1.8-20.6 5.5v-15.7c3.1-1.4 7.1-2.5 11.8-3.3 4.7-.9 8.8-1.3 12.1-1.3 9.9 0 17 2.1 21.4 6.3s6.7 11.2 6.7 21.1v32h-21.8zm-14.3-19.7c0 1.6.5 2.9 1.5 3.9s2.4 1.5 4.3 1.5c2.5 0 4.6-.9 6.2-2.8 1.6-1.9 2.3-4.3 2.3-7.3v-2.2l-8.2 1.1c-4 .7-6.1 2.7-6.1 5.8zm113.1 11.6c0 11.2-3.5 19.8-10.5 26-7 6.2-17.2 9.3-30.7 9.3-3.6 0-7.1-.3-10.5-.8s-5.8-1.2-7.3-1.9v-18.9c2.4 1.5 5.2 2.7 8.5 3.6 3.2.9 6.1 1.4 8.7 1.4 5.4 0 9.7-1.3 13-3.9s4.9-6.1 4.9-10.4v-3.6h-.2a17.8 17.8 0 0 1-7.2 6.3c-3 1.6-6.3 2.4-9.8 2.4-7.5 0-13.4-2.6-17.7-7.8a32.8 32.8 0 0 1-6.5-21.5c0-6.3 1.1-11.8 3.4-16.6s5.4-8.5 9.5-11.1c4-2.6 8.5-3.9 13.4-3.9 6.7 0 11.7 2.5 15 7.4h.2v-6h24l-.2 50zm-23.7-22.5c0-3.4-.8-6.1-2.3-8.1s-3.6-3-6.1-3c-2.7 0-4.9 1.2-6.5 3.6s-2.4 5.7-2.4 9.7c0 3.7.7 6.7 2 8.9s3.5 3.3 6.5 3.3c2.8 0 4.9-1.1 6.5-3.4s2.3-5.3 2.3-9v-2zm59 8.5a8 8 0 0 0 4.3 5.9c2.5 1.4 5.7 2.1 9.8 2.1 5.6 0 11-1.1 16-3.2v15.3c-5.9 2.3-13 3.5-21.3 3.5-10.1 0-18-2.6-23.6-7.8s-8.4-12.3-8.4-21.4c0-6.2 1.2-11.7 3.7-16.5s6.1-8.5 11-11.2 10.2-4 16.1-4 11.2 1.2 15.4 3.5 7.5 5.6 9.7 9.9 3.3 9.2 3.3 14.8v9.1h-36zm14.5-12.7c0-6.7-2.4-10-7.2-10-2 0-3.7.9-5 2.8s-2.2 4.3-2.4 7.3h14.6zm76.2-2.5a22 22 0 0 0-7.5-1.6c-8 0-12 4.6-12 13.8v25.2H1238v-58h24.2v10.2h.2c1.5-3.7 3.6-6.5 6.3-8.4 2.7-1.9 5.9-2.9 9.5-2.9 1.3 0 2.5.2 3.5.7v21zm89.8-31c-2.5-.9-4.8-1.3-7-1.3-2.7 0-4.7.7-5.9 2.1a7.8 7.8 0 0 0-1.9 5.6v4h13.4v16.7h-13.4v41.3h-24.2v-41.3h-9.8v-16.7h9.8v-5.3a22 22 0 0 1 12.9-20.9c4.2-2 9.2-3 15.2-3 4.3 0 7.9.4 10.9 1.2v17.6zm72.8 38.3c0 9.8-3 17.5-8.9 23.1s-14.2 8.4-24.8 8.4-18.8-2.7-24.6-8.2-8.8-13-8.8-22.6a27.2 27.2 0 0 1 15.9-26.4c5.1-2.4 11-3.6 17.6-3.6s12.8 1.3 17.9 3.8 8.9 6 11.6 10.5c2.7 4.4 4.1 9.4 4.1 15zm-24.5.1c0-7.9-3-11.8-9.1-11.8s-9.1 4.1-9.1 12.4c0 8.7 3.1 13.1 9.2 13.1s9-4.6 9-13.7zm80-7.4a22 22 0 0 0-7.5-1.6c-8 0-12 4.6-12 13.8v25.2h-24.2v-58h24.2v10.2h.2c1.5-3.7 3.6-6.5 6.3-8.4 2.7-1.9 5.9-2.9 9.5-2.9 1.3 0 2.5.2 3.5.7v21zm123.9-4.3c0 8.2-1.7 15.5-5.2 21.8a36.7 36.7 0 0 1-14.8 14.7 46.6 46.6 0 0 1-22.2 5.2h-34.4v-81.3h33.7c28.6-.1 42.9 13.2 42.9 39.6zm-26 .2c0-4-.8-7.5-2.4-10.7-1.6-3.2-3.9-5.6-6.9-7.4s-6.5-2.6-10.5-2.6h-6.3v43h6.9c5.9 0 10.5-2 14-6 3.5-4.1 5.2-9.5 5.2-16.3zm59 19.3a8 8 0 0 0 4.3 5.9c2.5 1.4 5.7 2.1 9.8 2.1 5.6 0 11-1.1 16-3.2v15.3c-5.9 2.3-13 3.5-21.3 3.5-10.1 0-18-2.6-23.6-7.8s-8.4-12.3-8.4-21.4c0-6.2 1.2-11.7 3.7-16.5s6.1-8.5 11-11.2 10.2-4 16.1-4 11.2 1.2 15.4 3.5 7.5 5.6 9.7 9.9 3.3 9.2 3.3 14.8v9.1h-36zm14.5-12.7c0-6.7-2.4-10-7.2-10-2 0-3.7.9-5 2.8s-2.2 4.3-2.4 7.3h14.6zm32.6 34.8v-85.9h24.2v85.9h-24.2zm104.1-30.8a42 42 0 0 1-3.2 16.8 25.8 25.8 0 0 1-9.1 11.3c-3.9 2.7-8.3 4-13.3 4-6.8 0-12-2.5-15.5-7.4h-.2v32.7h-24.2v-84.7h24.2v7.9h.2c1.9-2.9 4.4-5.2 7.5-6.8 3.1-1.6 6.5-2.5 10.4-2.5 7.5 0 13.2 2.5 17.2 7.5s6 12.1 6 21.2zm-24.5.8c0-3.7-.7-6.5-2.1-8.6s-3.6-3.1-6.6-3.1a7.1 7.1 0 0 0-6.2 3.3 15 15 0 0 0-2.4 9v1.1c0 3.7.7 6.6 2 8.8s3.4 3.3 6.1 3.3c2.9 0 5.2-1.2 6.7-3.6 1.7-2.5 2.5-5.8 2.5-10.2zm73.9 30v-33.1c0-5.8-2.2-8.7-6.6-8.7-2.2 0-3.8.8-4.9 2.5a11.1 11.1 0 0 0-1.7 6.3v33h-24.2v-85.9h24.2v35.8h.2c2.1-3 4.6-5.3 7.6-6.9s6.2-2.4 9.6-2.4c6.3 0 11.1 2 14.3 6 3.3 4 4.9 10 4.9 17.8v35.7l-23.4-.1zm62.7-73.7c0 3.4-1.2 6.2-3.7 8.3-2.5 2.1-5.7 3.2-9.8 3.2s-7.2-1.1-9.7-3.3-3.8-4.9-3.8-8.2 1.2-6 3.7-8.1c2.4-2.1 5.7-3.1 9.8-3.1s7.3 1 9.8 3.1a10 10 0 0 1 3.7 8.1zm-25.6 73.7v-58h24.2v58h-24.2z" class="st0"/><g fill="#f26e22"><path d="M1774.1 201.8h-192.5c-17.9 0-30.5-11.9-30.5-36.4s12.6-36.4 30.5-36.4h222.8L1920 0h-339.5l-421.9.7c-93.9 0-145.3 62.4-145.3 150.7s55 148.5 144.1 148.5h193.7c25.7 0 41.2 16.1 41.2 41.3s-15.5 39.2-41.2 39.2H994.5a310.6 310.6 0 0 0 27.3-130.3C1021.8 102.3 932.1.7 802.4.7H693C566.9.7 474.2 102.3 474.2 250.1s92.7 260 218.8 260h109.4l5.3-.1 543.5.1c98 0 145.9-67.3 145.9-157 0-40.3-7.7-72.1-22.7-95.8l.6.7c24.9 26.1 60.9 41.2 105.4 41.2h193.7c25.7 0 41.2 16.1 41.2 41.3s-15.5 39.2-41.2 39.2l-222.2.6-115.6 129.8 337.8-.7c98 0 145.9-67.3 145.9-157 0-103.6-50.8-150.6-145.9-150.6zm-422.9.7h-192.5c-17.9 0-30.5-11.9-30.5-36.4s12.6-36.4 30.5-36.4h278.8c-.7 6.8-1.1 13.8-1.1 21a161 161 0 0 0 24.3 89.2c-24.7-25.4-61.4-37.4-109.5-37.4z" class="st1"/><path d="M432.8 236.1c16.7-14 40-42.7 40-101.6 0-89-61-133.8-151.2-133.8H0v509.4h334.8c86.1 0 147.7-61 147.7-169.6-.1-47.6-23.4-86.8-49.7-104.4zM332.4 380.5H110V128.9h214.6c24.5 0 35.9 15.4 35.9 37.1 0 21.7-11.4 36.4-35.9 36.4H163.2v97.4h169.2c24.5 0 36.5 15.4 36.5 39.9s-12 40.8-36.5 40.8z" class="st1"/></g><path fill="#fff" d="M780.9 137.8a136.5 136.5 0 0 1 79.9 53.2c58.3 79.8 21.9 147.5 1.6 231l-83.3 41.5 14.2-134.4 48.6-27.1 3.3-31.6-76.1 44.4 5.1 60.3-26.4 33.4-26.4-33.4 5.1-60.3-76.1-44.4 3.3 31.6 48.6 27.1 14.2 134.4-83.2-41.5c-19.8-81.4-55.9-152.2 1.6-231a136 136 0 0 1 79.8-53.2l-2.1-30.4 35.3-67.3 35.3 67.3c-.9 10.2-1.6 20.3-2.3 30.4z"/></svg>