<svg xmlns="http://www.w3.org/2000/svg" xmlns:xlink="http://www.w3.org/1999/xlink" viewBox="0 0 1920 659.8"><g fill="#f26e22"><path d="M1436.4 510.1 1552 380.3l222.1-.5c25.7 0 41.3-14 41.3-39.3s-15.6-41.3-41.3-41.3h-193.7c-44.5 0-80.5-15-105.4-41.2-24.9-26-38.6-63.2-38.6-107.4 0-86.1 51.4-150.6 145.2-150.6H1920l-115.6 129h-222.8c-17.9 0-30.4 11.8-30.4 36.4s12.5 36.4 30.4 36.4h192.5c95 0 145.9 47 145.9 150.7 0 89.6-47.8 156.9-145.9 156.9l-337.7.7z"/><path d="m807.6 510 186.9-129.5h356.7c25.7 0 41.2-14 41.2-39.3S1377 300 1351.2 300h-193.7c-89 0-144-60.3-144-148.6S1064.7.7 1158.6.7l423-.7-106.8 129.6h-316.2c-18 0-30.5 12-30.5 36.5s12.5 36.4 30.5 36.4h192.5c95 0 145.9 47 145.9 150.7 0 89.6-47.9 157-146 157l-543.5-.2zM0 510.1V.7h321.6C412 .7 473 45.5 473 134.5c0 58.9-23.3 87.6-40 101.6 26.2 17.6 49.5 56.8 49.5 104.4 0 108.6-61.5 169.6-147.6 169.6H0zm163.2-210.2v-97.4h161.4c24.5 0 35.9-14.7 35.9-36.5s-11.4-37-35.9-37H110v251.5h222.4c24.5 0 36.5-16.2 36.5-40.7s-12-40-36.5-40H163.2z"/><path d="M802.4.7H693c-126.2 0-218.8 99.5-218.8 249.4s92.6 260 218.8 260h109.4c127.3 0 219.4-112.1 219.4-260S932 .7 802.4.7zm60 421.3L779 463.4 793.3 329l48.6-27.1 3.3-31.6-76.2 44.4 5.2 60.2-26.5 33.4-26.4-33.4 5.1-60.2-76.1-44.4 3.3 31.6 48.5 27 14.2 134.5-83.2-41.6c-19.7-81.4-55.8-152.2 1.6-231a136.3 136.3 0 0 1 79.8-53.1l-2-30.4L747.7 40l35.4 67.3-2.2 30.4a136.1 136.1 0 0 1 79.8 53.1c58.3 79.9 21.9 147.5 1.7 231z"/></g><g fill="#404040"><path d="M76.6 590.9c0 8.2-1.7 15.5-5.1 21.8S63 624 56.6 627.4s-13.8 5.1-22.2 5.1H0v-81.3h33.7c28.6 0 43 13.2 43 39.7zm-26 .2c0-4-.8-7.5-2.4-10.7s-3.9-5.6-6.9-7.4-6.5-2.6-10.5-2.6h-6.3v43h6.9c5.8 0 10.5-2 14-6a24 24 0 0 0 5.2-16.3z"/><use xlink:href="#a"/><path d="M222.2 601.7c0 6.4-1.1 12-3.3 16.9a26 26 0 0 1-9.1 11.3 23 23 0 0 1-13.3 4c-6.8 0-12-2.4-15.4-7.4h-.3v32.7h-24.1v-84.7h24.1v7.9h.3A20.4 20.4 0 0 1 199 573a21 21 0 0 1 17.2 7.4c4 5 6 12.1 6 21.2zm-24.5.8c0-3.7-.7-6.6-2.2-8.6s-3.6-3.2-6.5-3.2c-2.6 0-4.7 1.1-6.3 3.3s-2.3 5.2-2.3 9v1.2c0 3.6.6 6.6 2 8.8s3.4 3.2 6.1 3.2c3 0 5.2-1.2 6.8-3.6s2.4-5.7 2.4-10.1z"/><use xlink:href="#a" x="145.4"/><path d="M339.7 632.5v-31.7c0-3.6-.5-6.1-1.6-7.7s-2.9-2.4-5.3-2.4c-2 0-3.7.8-4.8 2.5s-1.8 3.7-1.8 6.2v33.1h-24.1v-58h24.1v9h.2a20.6 20.6 0 0 1 18.4-10.4c12.7 0 19 8 19 24v35.4h-24.1zm76.7 0v-6.7h-.2a21.6 21.6 0 0 1-16.8 8.1 22.2 22.2 0 0 1-21.6-13.9c-1.8-4.3-2.7-9.5-2.7-15.5s1-11.6 3.3-16.4 5.4-8.4 9.4-11a24.3 24.3 0 0 1 20.2-3c2 .7 3.8 1.6 5.3 2.7s2.4 2.3 2.8 3.5h.3v-33.7h24.1v86h-24.1zm.5-30.8c0-3.4-.8-6.1-2.3-8s-3.6-3-6.2-3-4.7 1.2-6.4 3.6a16.8 16.8 0 0 0-2.5 9.7c0 8.2 2.9 12.3 8.5 12.3 2.7 0 4.9-1.1 6.5-3.4 1.6-2.2 2.4-5.4 2.4-9.6v-1.6z"/><use xlink:href="#a" x="366.3"/><path d="M560.6 632.5v-31.7c0-3.6-.5-6.1-1.6-7.7s-2.8-2.4-5.2-2.4c-2.1 0-3.7.8-5 2.5s-1.7 3.7-1.7 6.2v33.1H523v-58h24v9h.3a20.6 20.6 0 0 1 18.3-10.4c12.7 0 19 8 19 24v35.4h-24zm85.8-1.6c-1.6.9-4 1.6-7.3 2.2-3.3.6-7.2.8-11.5.8-6.1 0-11.6-1.2-16.4-3.7s-8.6-6-11.2-10.4-4-9.4-4-15c0-6.6 1.4-12.3 4.2-17s6.8-8.4 12-11a41.3 41.3 0 0 1 18.2-3.7c3.8 0 7.2.2 10.2.7s5 1 5.8 1.7v18.8a21.6 21.6 0 0 0-11.5-3.5c-4.8 0-8.3 1-10.8 3.3s-3.6 5.4-3.6 9.5 1.2 7.1 3.6 9.3 5.7 3.4 9.9 3.4c4.5 0 8.6-1.1 12.4-3.3v18zm23.8 28.9a39.9 39.9 0 0 1-14.3-2.3v-18.2c1 .7 2.4 1.3 4.3 2s3.6.8 5.3.8c4.5 0 7.4-1.7 9-5.3l1.8-4.5-24.3-57.8h26.7l7 28c1.4 5.2 2.2 8.7 2.3 10.5h.2a40 40 0 0 1 .5-2.8c.2-1 3.1-13 8.8-35.7H721L699.6 634c-3.2 9.2-7.2 15.7-12 19.7s-10.5 6-17.4 6zm170-27.3V588c0-4.2.2-8.8.5-13.9l.1-3.7h-.6c-1.2 6.4-2.2 10.8-2.8 13.3l-12 48.8h-23L790 584.2l-2.7-13.8h-.7l.8 23.8v38.3H766v-81.3h36.6l11.2 44.2a87.3 87.3 0 0 1 1.9 12h.3c.4-3.5 1-7.5 2-12.2l10.4-44h36.1v81.3h-24.1zm73.1 0v-8.8h-.2a19 19 0 0 1-17.7 10.2c-5.5 0-9.8-1.6-12.9-4.8s-4.6-7.6-4.6-13c0-11.5 7-18.1 21-20l14.4-1.8c0-1.9-.9-3.4-2.6-4.6s-4-1.9-6.8-1.9c-6.5 0-13.4 1.9-20.6 5.6v-15.7a76.7 76.7 0 0 1 24-4.6c9.8 0 17 2 21.4 6.3s6.6 11.2 6.6 21v32.1h-22zM899 612.8c0 1.6.5 2.9 1.5 3.9s2.4 1.5 4.3 1.5c2.5 0 4.6-1 6.2-2.8s2.3-4.3 2.3-7.3V606l-8.2 1.2c-4 .6-6 2.5-6 5.7zm87.8 19.7v-31.7c0-3.6-.6-6.1-1.6-7.7s-2.9-2.4-5.3-2.4c-2 0-3.7.8-4.9 2.5a10.4 10.4 0 0 0-1.7 6.2v33.1H949v-58h24.2v9h.2a20.6 20.6 0 0 1 18.4-10.4c12.7 0 19 8 19 24v35.4h-24.1zm70.1 0v-8.8h-.2a19 19 0 0 1-17.7 10.2c-5.5 0-9.8-1.6-12.9-4.8s-4.6-7.6-4.6-13c0-11.5 7-18.1 21-20l14.4-1.8c0-1.9-.8-3.4-2.5-4.6s-4-1.9-7-1.9c-6.4 0-13.3 1.9-20.5 5.6v-15.7a76.7 76.7 0 0 1 24-4.6c9.8 0 17 2 21.4 6.3s6.6 11.2 6.6 21v32.1h-22zm-14.3-19.7c0 1.6.5 2.9 1.5 3.9s2.5 1.5 4.3 1.5c2.5 0 4.6-1 6.2-2.8s2.3-4.3 2.3-7.3V606l-8.2 1.2c-4 .6-6 2.5-6 5.7zm113 11.6a33 33 0 0 1-10.5 26c-7 6.3-17.2 9.4-30.6 9.4a60.6 60.6 0 0 1-17.9-2.8v-19c2.4 1.6 5.3 2.8 8.5 3.7s6.1 1.4 8.7 1.4c5.4 0 9.7-1.3 13-4s4.8-6 4.8-10.3v-3.6h-.2a20.8 20.8 0 0 1-17 8.7 22 22 0 0 1-17.7-7.7 32.5 32.5 0 0 1-6.5-21.5c0-6.3 1.1-11.9 3.4-16.7a25.7 25.7 0 0 1 22.8-15 17 17 0 0 1 15 7.5h.2v-6h24v50zM1132 602c0-3.4-.8-6.1-2.3-8.1s-3.6-3-6-3c-2.8 0-5 1.2-6.6 3.6s-2.4 5.6-2.4 9.7c0 3.7.6 6.7 2 8.9s3.5 3.3 6.5 3.3c2.7 0 4.9-1.2 6.5-3.4s2.3-5.3 2.3-9v-2z"/><use xlink:href="#b"/><use xlink:href="#c"/><path d="M1371.5 564.2c-2.5-1-4.8-1.3-7-1.3-2.7 0-4.7.7-6 2s-1.9 3.3-1.9 5.6v4h13.5v16.7h-13.5v41.3h-24.1v-41.3h-9.8v-16.7h9.8v-5.3c0-4.8 1-9 3.3-12.6s5.4-6.4 9.5-8.4 9.3-3 15.2-3c4.4 0 8 .4 11 1.3v17.7zm72.8 38.3c0 9.8-3 17.5-8.9 23s-14.2 8.4-24.8 8.4-18.7-2.7-24.6-8.1-8.8-13-8.8-22.6a27.4 27.4 0 0 1 16-26.5c5-2.4 10.9-3.6 17.5-3.6s12.9 1.2 18 3.8a27.8 27.8 0 0 1 15.6 25.6zm-24.5 0c0-7.8-3-11.8-9-11.8s-9.1 4.2-9.1 12.4c0 8.8 3 13.1 9.1 13.1s9-4.5 9-13.6z"/><use xlink:href="#c" x="218.1"/><path d="M1623.7 590.9c0 8.2-1.7 15.5-5.2 21.8s-8.4 11.2-14.8 14.7-13.8 5.1-22.2 5.1H1547v-81.3h33.7c28.6 0 43 13.2 43 39.7zm-26 .2c0-4-.8-7.5-2.4-10.7s-4-5.6-6.9-7.4-6.5-2.6-10.5-2.6h-6.3v43h6.8c5.9 0 10.6-2 14-6s5.3-9.5 5.3-16.3z"/><use xlink:href="#b" x="465.7"/><path d="M1703.8 632.5v-86h24.1v86h-24.1zm104.1-30.8c0 6.4-1 12-3.2 16.9a26 26 0 0 1-9.2 11.3 23 23 0 0 1-13.2 4c-6.8 0-12-2.4-15.5-7.4h-.2v32.7h-24.2v-84.7h24.2v7.9h.2a20.4 20.4 0 0 1 18-9.3c7.4 0 13.1 2.5 17.1 7.4 4 5 6 12.1 6 21.2zm-24.5.8c0-3.7-.7-6.6-2.1-8.6s-3.6-3.2-6.6-3.2a7.3 7.3 0 0 0-6.2 3.3 15 15 0 0 0-2.4 9v1.2c0 3.6.7 6.6 2 8.8s3.5 3.2 6.2 3.2c2.9 0 5.1-1.2 6.7-3.6a18 18 0 0 0 2.4-10.1zm73.9 30v-33c0-5.9-2.2-8.8-6.6-8.8-2.2 0-3.8.9-5 2.5a11 11 0 0 0-1.7 6.3v33h-24v-85.9h24.1v35.8h.3c2-3 4.6-5.3 7.5-7s6.2-2.3 9.6-2.3c6.3 0 11 2 14.3 6s5 10 5 17.8v35.6h-23.4zm62.7-73.7c0 3.4-1.2 6.2-3.7 8.3-2.5 2.1-5.7 3.2-9.8 3.2s-7.1-1.1-9.7-3.3-3.7-5-3.7-8.2 1.2-6 3.6-8 5.7-3.1 9.8-3.1 7.3 1 9.8 3a10 10 0 0 1 3.7 8.1zm-25.6 73.7v-58h24.2v58h-24.2z"/></g><defs><path id="a" d="M109.6 610.4c.4 2.5 1.8 4.4 4.3 5.8s5.7 2.2 9.7 2.2c5.7 0 11-1.1 16-3.3v15.3c-5.8 2.4-13 3.5-21.3 3.5-10.1 0-18-2.5-23.6-7.7s-8.5-12.3-8.5-21.4c0-6.2 1.3-11.7 3.7-16.5s6.2-8.5 11-11.2 10.2-4 16.1-4 11.2 1.1 15.4 3.5c4.3 2.3 7.5 5.6 9.7 9.9s3.4 9.1 3.4 14.8v9h-36zm14.5-12.7c0-6.7-2.4-10-7.2-10-2 0-3.7 1-5 2.7s-2.2 4.3-2.4 7.3H124z"/><path id="b" d="M1191 610.4c.4 2.5 1.8 4.4 4.3 5.8s5.7 2.2 9.7 2.2c5.7 0 11-1.1 16-3.3v15.3c-5.8 2.4-13 3.5-21.3 3.5-10.1 0-18-2.5-23.6-7.7s-8.5-12.3-8.5-21.4c0-6.2 1.3-11.7 3.7-16.5s6.2-8.5 11-11.2 10.2-4 16.1-4 11.1 1.1 15.4 3.5 7.5 5.6 9.7 9.9 3.4 9.1 3.4 14.8v9h-36zm14.5-12.7c0-6.7-2.4-10-7.2-10-2 0-3.7 1-5 2.7s-2.2 4.3-2.4 7.3h14.6z"/><path id="c" d="M1281.7 595.2c-.9-.5-2.1-.8-3.6-1.2a23 23 0 0 0-3.9-.5c-8 0-12 4.6-12 13.9v25.1h-24.1v-58h24.1v10.2h.3a16.2 16.2 0 0 1 15.8-11.2c1.3 0 2.5.2 3.5.7v21z"/></defs></svg>
