<svg xmlns="http://www.w3.org/2000/svg" xml:space="preserve" viewBox="0 0 1022.8 1080"><path fill="#f26e22" d="M917.6 499.1c35.5-29.7 84.9-90.6 84.9-215.4C1002.5 95.1 873.3 0 681.9 0H0v1080h709.8c182.5 0 313.1-129.2 313.1-359.5-.1-101-49.5-184.2-105.3-221.4z"/><path fill="#fff" d="M751 393.3a326.4 326.4 0 0 0-187.5-126.6l2.3-31.6a4306 4306 0 0 1 2.6-35.8l.1-1.4-.7-1.3-83.5-159.1-4.4-8.4-4.4 8.4L392 196.6l-.7 1.2.1 1.4 3.1 45.3 1.5 22.2a327.1 327.1 0 0 0-187.4 126.7A384.3 384.3 0 0 0 149.5 509a358.9 358.9 0 0 0-15.2 113.1c1.4 74.7 22.2 148.4 44.2 226.4 8.7 30.8 17.7 62.6 25.5 94.8l.6 2.3 2.1 1 196.6 98.1 8.2 4.1-1-9.1-17-160.6-16.6-156.9-.3-2.6-2.3-1.3L266 657.9l-4.3-2.4-6.4-62.2 168.6 98.3L412 832.9l67.6 85.4 67.6-85.4-12-141.3 168.6-98.3-6.4 62.2-4.3 2.4-108.3 60.4-2.3 1.3-.3 2.6a67422 67422 0 0 1-33.2 317.5l-1 9.1 8.2-4.1 72.5-36.1 124.3-62 2.1-1 .5-2.3a2514 2514 0 0 1 27-99.8c22-77.2 42.9-150.1 43.9-223.5 1.2-82.6-22.8-154.6-75.5-226.7z"/></svg>
