<svg xmlns="http://www.w3.org/2000/svg" viewBox="0 0 1022.8 1080"><path fill="#f26e22" d="M917.6 499.1c35.5-29.7 85-90.6 85-215.4C1002.5 95.1 873.3 0 681.8 0H0v1080h709.8c182.5 0 313-129.2 313-359.5 0-101-49.4-184.2-105.2-221.3Zm-91 120.8c-1 73.5-21.9 146.4-44 223.6-9.1 32.2-18.7 65.5-27 99.8l-.5 2.3-2.1 1-124.3 62-72.5 36.1-8.1 4 1-9 33.5-317.5.3-2.6 2.2-1.3c36.1-20 72.8-40.5 108.3-60.4l4.3-2.4 6.4-62.2-168.6 98.3 12 141.3-67.6 85.4-67.6-85.4 12-141.3-168.7-98.3 6.5 62.2 4.3 2.4c35.4 19.9 72.1 40.4 108.2 60.4l2.3 1.3.3 2.6 16.5 157 17 160.5 1 9-8.2-4-196.6-98.1-2.1-1-.6-2.3c-7.8-32.2-16.8-64-25.5-94.8-22-78-42.9-151.7-44.2-226.4-.8-40.3 4.2-77.3 15.2-113.2 12.2-40 31.5-77.8 59-115.5a326.7 326.7 0 0 1 187.4-126.7l-1.5-22.2-3.1-45.3-.1-1.4.6-1.3 83.5-159 4.4-8.5 4.4 8.5 83.5 159.1.7 1.3-.1 1.4a22327.4 22327.4 0 0 0-4.9 67.4A326.2 326.2 0 0 1 751 393.3c52.7 72.1 76.7 144.1 75.5 226.6Z"/></svg>
