<svg xmlns="http://www.w3.org/2000/svg" xml:space="preserve" baseProfile="tiny" overflow="visible" version="1.2" viewBox="0 0 1920 510.1"><g fill="#F26E22"><path d="M1774.1 201.8h-192.5c-17.9 0-30.5-11.9-30.5-36.4s12.6-36.4 30.5-36.4h222.8L1920 0h-339.5l-421.9.7c-93.9 0-145.3 62.4-145.3 150.7s55 148.5 144.1 148.5h193.7c25.7 0 41.2 16.1 41.2 41.3s-15.5 39.2-41.2 39.2H994.5a311 311 0 0 0 27.3-130.3C1021.8 102.3 932.1.7 802.4.7H693C566.9.7 474.2 102.3 474.2 250.1s92.7 260 218.8 260h109.4l5.3-.1 543.5.1c98 0 145.9-67.3 145.9-157 0-40.3-7.7-72.1-22.7-95.8l.6.7c24.9 26.1 60.9 41.2 105.4 41.2h193.7c25.7 0 41.2 16.1 41.2 41.3s-15.5 39.2-41.2 39.2l-222.2.6-115.6 129.8 337.8-.7c98 0 145.9-67.3 145.9-157 0-103.6-50.8-150.6-145.9-150.6zm-422.9.7h-192.5c-17.9 0-30.5-11.9-30.5-36.4s12.6-36.4 30.5-36.4h278.8c-.7 6.8-1.1 13.8-1.1 21-.8 31.5 7.7 62.5 24.3 89.2-24.7-25.4-61.4-37.4-109.5-37.4z"/><path d="M432.8 236.1c16.7-14 40-42.7 40-101.6 0-89-61-133.8-151.2-133.8H0v509.4h334.8c86.1 0 147.7-61 147.7-169.6-.1-47.6-23.4-86.8-49.7-104.4zM332.4 380.5H110V128.9h214.6c24.5 0 35.9 15.4 35.9 37.1s-11.4 36.4-35.9 36.4H163.2v97.4h169.2c24.5 0 36.5 15.4 36.5 39.9s-12 40.8-36.5 40.8z"/></g><path fill="#FFF" d="M780.9 137.8a136.7 136.7 0 0 1 79.9 53.2c58.3 79.8 21.9 147.5 1.6 231l-83.3 41.5 14.2-134.4 48.6-27.1 3.3-31.6-76.1 44.4 5.1 60.3-26.4 33.4-26.4-33.4 5.1-60.3-76.1-44.4 3.3 31.6 48.6 27.1 14.2 134.4-83.2-41.5c-19.8-81.4-55.9-152.2 1.6-231a136.4 136.4 0 0 1 79.8-53.2l-2.1-30.4 35.3-67.3 35.3 67.3c-.9 10.2-1.6 20.3-2.3 30.4z"/></svg>
